:SAMPLES-PER-SECOND 30
:FRAME-RANGE 1-1700
:FULLY-SPECIFIED
:DEGREES
585
root  27.7771 34.3627 -12.2673 -20.7134 57.1871 -9.47511
RightUpLeg  -9.72587 -4.31445 24.2626
RightLeg  49.3295 -11.7368 -14.5719
RightFoot  -27.8067 -2.28938 -14.4359
RightToes  -1.16417e-010 0 -3.6325e-017
Spine  15.5337 1.98922 -3.75166
Spine1  1.59195 -6.22776 4.15702
HEad  -0.211989 -8.88662 2.23908
LeftShoulder1  3.28297 -5.45941 -30.6171
LeftArm  74.9791 -37.8128 -89.5891
LeftForeArm  9.89213 -14.178 -14.0747
LeftHand  -0.0172783 5.37187 -0.834328
RightShoulder  14.5881 23.6756 46.8046
RightArm  38.5113 8.69576 20.2102
RightForeArm  10.7598 25.53 4.90766
RightHand  1.29461 7.37138 11.3397
LeftUpLeg  -102.709 32.5805 -74.5536
LeftLeg  136.588 -6.04033 4.91832
LeftFoot  4.53667 -0.617235 4.22652
LeftToes  1.03528e-008 1.55373e-010 -2.26046e-010
586
root  28.4291 34.7076 -11.5657 -20.3581 56.495 -9.08191
RightUpLeg  -6.35792 -4.2301 24.403
RightLeg  46.2234 -12.0897 -13.48
RightFoot  -27.8806 -2.34175 -14.722
RightToes  -1.16417e-010 0 -3.6325e-017
Spine  13.5528 1.83518 -5.67689
Spine1  2.13908 -6.65175 4.49569
HEad  1.94889 -8.23032 1.95972
LeftShoulder1  3.32569 -5.54216 -30.7562
LeftArm  73.0367 -37.1815 -88.6929
LeftForeArm  11.2407 -13.8209 -14.2906
LeftHand  -0.0180662 5.42005 -0.667193
RightShoulder  14.699 24.2852 46.0871
RightArm  39.6401 8.32902 21.0358
RightForeArm  15.8321 25.485 4.62537
RightHand  1.19706 7.32702 10.502
LeftUpLeg  -102.264 31.5467 -75.5575
LeftLeg  137.317 -0.859704 0.350525
LeftFoot  2.08147 -0.00707781 -0.0469589
LeftToes  1.03528e-008 1.55373e-010 -2.26046e-010
587
root  28.9411 35.4983 -11.0493 -18.922 55.7475 -7.7863
RightUpLeg  -2.39558 -3.35478 23.6708
RightLeg  40.3421 -12.592 -11.4905
RightFoot  -25.844 -2.04784 -14.631
RightToes  -1.16417e-010 0 -3.6325e-017
Spine  12.728 1.89013 -7.08944
Spine1  1.22076 -6.13886 4.38665
HEad  4.20456 -8.57618 2.50611
LeftShoulder1  3.29477 -5.45651 -30.7621
LeftArm  72.3448 -35.6359 -88.2328
LeftForeArm  12.8134 -13.7873 -14.2476
LeftHand  -0.0196968 5.50091 -0.689519
RightShoulder  14.4983 23.7272 46.4146
RightArm  41.2818 7.07051 21.1447
RightForeArm  14.9573 25.9034 4.76463
RightHand  1.24626 7.28654 10.9826
LeftUpLeg  -100.785 30.6998 -74.3491
LeftLeg  137.602 2.32525 -2.36576
LeftFoot  2.12223 0.467312 -4.06803
LeftToes  1.03528e-008 1.55373e-010 -2.26046e-010
588
root  29.3947 36.5366 -10.692 -15.8129 54.6786 -5.10657
RightUpLeg  1.00182 -2.25374 21.5533
RightLeg  33.8625 -11.4857 -8.4263
RightFoot  -21.9054 -1.42699 -13.7602
RightToes  -1.16417e-010 0 -3.6325e-017
Spine  12.1102 2.33374 -8.36975
Spine1  -0.556994 -4.85206 3.99206
HEad  7.54058 -8.99993 2.50784
LeftShoulder1  3.27365 -5.47667 -30.4407
LeftArm  78.2034 -33.7135 -88.1586
LeftForeArm  7.93846 -15.6507 -12.9211
LeftHand  -0.0095266 4.9741 -2.11378
RightShoulder  13.8211 22.1013 47.1139
RightArm  42.655 4.7916 20.6053
RightForeArm  12.2104 26.686 5.08842
RightHand  1.31748 7.30569 11.6078
LeftUpLeg  -98.7912 29.5163 -72.3906
LeftLeg  137.364 4.24607 -4.02475
LeftFoot  3.96744 1.03433 -7.86788
LeftToes  1.03528e-008 1.55373e-010 -2.26046e-010
589
root  29.8678 37.69 -10.4045 -12.8243 53.6139 -2.4062
RightUpLeg  2.84323 -3.49881 18.0954
RightLeg  29.8835 -6.96468 -4.54905
RightFoot  -15.6391 -0.515357 -10.8869
RightToes  -1.16417e-010 0 -3.6325e-017
Spine  10.7614 2.4323 -9.60264
Spine1  -0.577943 -4.06044 4.07153
HEad  10.0037 -7.83793 1.7092
LeftShoulder1  3.24941 -5.52935 -29.9531
LeftArm  87.3952 -31.9864 -87.9862
LeftForeArm  0.0548143 -18.2473 -10.6844
LeftHand  -0.00582743 4.80852 -2.51804
RightShoulder  13.4748 21.127 47.7858
RightArm  43.0569 3.38612 20.6819
RightForeArm  11.0172 26.0969 5.02031
RightHand  1.39819 7.55341 12.0876
LeftUpLeg  -96.4955 28.2051 -69.7932
LeftLeg  136.763 6.14067 -5.74679
LeftFoot  5.72654 1.65137 -11.2104
LeftToes  1.03528e-008 1.55373e-010 -2.26046e-010
590
root  30.3608 38.7431 -10.2172 -11.9512 52.1636 -1.53703
RightUpLeg  3.1758 -6.53951 14.9998
RightLeg  29.4814 -1.06363 -0.89409
RightFoot  -7.66913 0.140421 -5.98654
RightToes  -1.16417e-010 0 -3.6325e-017
Spine  9.58092 2.14581 -9.20038
Spine1  0.91411 -3.82706 4.26947
HEad  11.3841 -5.41701 0.576644
LeftShoulder1  3.21849 -5.55596 -29.4985
LeftArm  92.4075 -31.447 -88.0594
LeftForeArm  -4.61337 -19.5239 -9.45278
LeftHand  -0.010724 4.93115 -2.01511
RightShoulder  13.6418 21.1718 48.2984
RightArm  42.9876 3.41212 20.6509
RightForeArm  9.97037 25.3577 4.91166
RightHand  1.42103 7.89658 11.9564
LeftUpLeg  -94.8883 27.3951 -66.3195
LeftLeg  135.844 8.16138 -7.71406
LeftFoot  4.38263 1.96348 -14.3515
LeftToes  1.03528e-008 1.55373e-010 -2.26046e-010
591
root  30.8257 39.5292 -10.0632 -13.2624 50.5943 -2.38797
RightUpLeg  1.77984 -8.38465 13.4396
RightLeg  32.8757 2.75353 1.66067
RightFoot  1.81432 0.0179827 -0.0485163
RightToes  -1.16417e-010 0 -3.6325e-017
Spine  10.5107 1.73143 -7.31255
Spine1  1.47616 -3.88167 4.1403
HEad  13.049 -2.77341 -0.331528
LeftShoulder1  3.1541 -5.53388 -28.8596
LeftArm  96.3912 -31.933 -89.1081
LeftForeArm  -7.78687 -20.3469 -8.63168
LeftHand  -0.0119766 4.96114 -2.10759
RightShoulder  13.9229 21.591 48.4645
RightArm  41.1328 3.83722 20.4326
RightForeArm  10.542 25.0696 4.81752
RightHand  1.43333 8.26874 11.7171
LeftUpLeg  -93.6866 26.9782 -63.4729
LeftLeg  134.745 10.5364 -10.1507
LeftFoot  1.3868 1.41111 -12.6872
LeftToes  1.03528e-008 1.55373e-010 -2.26046e-010
